<?xml version="1.0" encoding="utf-8"?>
<!-- Generator: Adobe Illustrator 21.0.0, SVG Export Plug-In . SVG Version: 6.00 Build 0)  -->
<svg version="1.1" id="Слой_1" xmlns="http://www.w3.org/2000/svg" xmlns:xlink="http://www.w3.org/1999/xlink" x="0px" y="0px"
	 viewBox="0 0 113.5 38.6" style="enable-background:new 0 0 113.5 38.6;" xml:space="preserve">
<style type="text/css">
	.st0{fill:#FFFFFF;}
</style>
<title>logo_getmodel</title>
<g>
	<g>
		<g>
			<path class="st0" d="M5.9,15c2,0,3.2,0.7,4.1,2.1l-2,1.5c-0.5-0.8-1.3-1.2-2.3-1.2c-0.8,0-1.5,0.3-2.1,0.9s-0.9,1.3-0.9,2.1
				c0,0.7,0.2,1.2,0.7,1.7s1.1,0.6,1.8,0.6s1.3-0.2,1.9-0.6l0.2-0.9H4.7L5.1,19H10l-0.9,4.5C7.9,24.5,6.5,25,5,25s-2.6-0.4-3.6-1.3
				S0,21.8,0,20.5C-0.1,17.7,2.7,14.9,5.9,15z"/>
		</g>
		<g>
			<path class="st0" d="M9.8,24.9l2-9.8H19l-0.5,2.4H14l-0.3,1.3h4.2L17.5,21h-4.2L13,22.5h4.6l-0.5,2.4H9.8z"/>
		</g>
		<g>
			<path class="st0" d="M20.3,24.9l1.5-7.4h-2.6l0.5-2.4h7.9l-0.5,2.4h-2.6L23,24.9H20.3z"/>
		</g>
		<g>
			<path class="st0" d="M26.3,24.9l2-9.8h2.2l2.1,4.5l4.1-4.5H39l-2,9.8h-2.5l1.1-5.2l-3.7,4l-2-4.2l-1.1,5.4
				C28.8,24.9,26.3,24.9,26.3,24.9z"/>
		</g>
		<g>
			<path class="st0" d="M39.7,17.8c0.5-0.9,1.2-1.5,2.1-2.1c0.9-0.5,1.9-0.8,3-0.8c1.5,0,2.7,0.4,3.6,1.3c1,0.9,1.4,1.9,1.4,3.3
				c0,1.5-0.6,2.7-1.7,3.9c-1.1,1.1-2.5,1.7-4.2,1.7c-1.5,0-2.7-0.4-3.7-1.3s-1.4-1.9-1.4-3.3C38.9,19.6,39.2,18.7,39.7,17.8z
				 M42.3,22c0.5,0.4,1.1,0.7,1.8,0.7c0.8,0,1.5-0.3,2.1-0.9s0.9-1.3,0.9-2s-0.2-1.3-0.7-1.7c-0.5-0.5-1.1-0.7-1.8-0.7
				c-0.8,0-1.5,0.3-2.1,0.9s-0.9,1.3-0.9,2.1C41.7,21,41.9,21.6,42.3,22z"/>
		</g>
		<g>
			<path class="st0" d="M49.9,24.9l2-9.8h3.8c1.3,0,2.4,0.4,3.3,1.2c0.9,0.8,1.3,1.9,1.3,3.2c0,2.7-2.2,5.4-5.4,5.4H49.9z
				 M53.1,22.5h1.8c0.7,0,1.4-0.3,1.9-0.8s0.8-1.2,0.8-1.9c0-1.2-0.9-2.2-2.2-2.2h-1.3L53.1,22.5z"/>
		</g>
		<g>
			<path class="st0" d="M60.2,24.8l2-9.8h7.2l-0.5,2.4h-4.5L64,18.8h4.2L67.8,21h-4.2l-0.3,1.5h4.6l-0.5,2.4h-7.2V24.8z"/>
		</g>
		<g>
			<path class="st0" d="M68.7,24.9l2-9.8h2.7l-1.5,7.4h4.4l-0.5,2.4H68.7z"/>
		</g>
		<g>
			<path class="st0" d="M77,23.8c0-0.4,0.2-0.8,0.4-1.1c0.3-0.3,0.6-0.5,1.1-0.5c0.7,0,1.3,0.5,1.3,1.2c0,0.4-0.1,0.7-0.4,1
				C79,24.9,78.7,25,78.2,25C77.5,25,77,24.5,77,23.8z"/>
		</g>
		<g>
			<path class="st0" d="M81.1,17.8c0.5-0.9,1.2-1.5,2.1-2.1c0.9-0.5,1.9-0.8,3-0.8c1.9,0,3.2,0.7,4.2,2.1l-2.2,1.5
				c-0.5-0.8-1.3-1.2-2.2-1.2c-0.8,0-1.5,0.3-2.1,0.9S83,19.5,83,20.3c0,0.7,0.2,1.3,0.7,1.7s1.1,0.7,1.8,0.7c0.8,0,1.5-0.4,2.2-1
				l1.7,1.7c-1.1,1.1-2.4,1.7-4,1.7c-1.5,0-2.7-0.4-3.7-1.3s-1.4-1.9-1.4-3.3C80.3,19.6,80.6,18.7,81.1,17.8z"/>
		</g>
		<g>
			<path class="st0" d="M90.8,17.8c0.5-0.9,1.2-1.5,2.1-2.1c0.9-0.5,1.9-0.8,3-0.8c1.5,0,2.7,0.4,3.6,1.3c1,0.9,1.4,1.9,1.4,3.3
				c0,1.5-0.6,2.7-1.7,3.9c-1.1,1.1-2.5,1.7-4.2,1.7c-1.5,0-2.7-0.4-3.7-1.3s-1.4-1.9-1.4-3.3C90,19.6,90.3,18.7,90.8,17.8z
				 M93.5,22c0.5,0.4,1.1,0.7,1.8,0.7c0.8,0,1.5-0.3,2.1-0.9s0.9-1.3,0.9-2s-0.2-1.3-0.7-1.7c-0.5-0.5-1.1-0.7-1.8-0.7
				c-0.8,0-1.5,0.3-2.1,0.9s-0.9,1.3-0.9,2.1C92.8,21,93,21.6,93.5,22z"/>
		</g>
		<g>
			<path class="st0" d="M100.9,24.9l2-9.8h2.2l2.1,4.5l4.1-4.5h2.3l-2,9.8h-2.5l1.1-5.2l-3.7,4l-2-4.2l-1.1,5.4
				C103.4,24.9,100.9,24.9,100.9,24.9z"/>
		</g>
	</g>
	<g>
		<path class="st0" d="M10.5,33.1H9.6l0.8-4H9.3L9,30.5c-0.4,2.1-1,2.6-2,2.6H6.7l0.1-0.8H7c0.5,0,0.9-0.3,1.2-1.8l0.5-2.2h2.9
			L10.5,33.1z"/>
		<path class="st0" d="M13.4,32.3c-0.4,0.6-0.7,0.9-1.4,0.9h-0.4l0.1-0.8H12c0.3,0,0.5-0.1,0.7-0.4l0.2-0.4L12,28.3h1l0.5,2.4
			l1.4-2.4h1L13.4,32.3z"/>
		<path class="st0" d="M18.8,33.1h-0.9l0.4-1.8c-0.3,0.1-0.7,0.1-1,0.1c-0.6,0-1.1-0.3-1.1-0.9c0-0.1,0-0.2,0-0.4l0.4-1.9h0.9L17,30
			c0,0.1,0,0.2,0,0.2c0,0.3,0.2,0.4,0.5,0.4s0.6,0,0.8-0.1l0.5-2.3h0.9L18.8,33.1z"/>
		<path class="st0" d="M25.1,33.1h-5.2l1-4.8h0.9l-0.8,4h1.3l0.8-4H24l-0.8,4h1.3l0.8-4H26L25.1,33.1z"/>
		<path class="st0" d="M28.8,33.1l-0.1-0.9h-1.6l-0.5,0.9h-1l2.6-4.8H29l0.7,4.8H28.8z M28.4,29.7l-1,1.9h1.2L28.4,29.7z"/>
		<path class="st0" d="M33.6,33.1h-0.9l0.4-1.9h-0.7l-1.3,1.9h-1l1.4-2.1c-0.4-0.2-0.5-0.6-0.5-1c0-0.8,0.6-1.6,1.8-1.6h1.8
			L33.6,33.1z M32.8,29.1c-0.6,0-0.8,0.5-0.8,0.8s0.2,0.5,0.5,0.5h0.8l0.3-1.3H32.8z"/>
		<path class="st0" d="M38.4,31.3h-0.9l-0.4,1.9h-0.9l1-4.8h1.7c0.8,0,1.3,0.5,1.3,1.3C40.2,30.4,39.6,31.3,38.4,31.3z M38.7,29.1
			h-0.8l-0.3,1.4h0.8c0.6,0,0.8-0.4,0.8-0.8C39.3,29.4,39.1,29.1,38.7,29.1z"/>
		<path class="st0" d="M42.7,33.1l-0.1-0.9H41l-0.5,0.9h-1l2.6-4.8h0.7l0.7,4.8H42.7z M42.3,29.7l-1,1.9h1.2L42.3,29.7z"/>
		<path class="st0" d="M48,29.1h-2.1l-0.2,1.1h0.8c0.8,0,1.3,0.5,1.3,1.3c0,0.9-0.6,1.7-1.8,1.7h-1.8l1-4.8h3L48,29.1z M46.3,31
			h-0.8l-0.3,1.4H46c0.6,0,0.8-0.4,0.8-0.8C46.9,31.2,46.7,31,46.3,31z"/>
		<path class="st0" d="M52,30.7c-0.2,0.9-0.3,1.5-0.7,1.9s-0.9,0.6-1.4,0.6c-0.9,0-1.5-0.6-1.5-1.4c0-0.2,0-0.5,0.1-1.1
			c0.2-0.9,0.3-1.5,0.7-1.9s0.9-0.6,1.4-0.6c0.9,0,1.5,0.6,1.5,1.4C52.1,29.9,52.1,30.2,52,30.7z M50.6,29.1c-0.3,0-0.5,0.1-0.6,0.3
			c-0.2,0.2-0.3,0.5-0.5,1.4c-0.1,0.4-0.1,0.8-0.1,1c0,0.4,0.3,0.7,0.6,0.7s0.5-0.1,0.6-0.3c0.2-0.2,0.3-0.5,0.5-1.4
			c0.1-0.4,0.1-0.8,0.1-1C51.2,29.3,50.9,29.1,50.6,29.1z"/>
		<path class="st0" d="M56.1,29.1h-1.2l-0.8,4h-0.9l0.8-4h-1.2l0.2-0.8h3.3L56.1,29.1z"/>
		<path class="st0" d="M58.3,33.1l-0.1-0.9h-1.6l-0.5,0.9h-1l2.6-4.8h0.7l0.7,4.8H58.3z M57.9,29.7l-1,1.9h1.2L57.9,29.7z"/>
		<path class="st0" d="M64.8,32.3h0.5L65,34.2h-0.9l0.2-1h-2.6l-0.2,1h-0.9l0.4-1.8h0.4c0.5-0.8,0.9-1.8,1.2-3.3l0.1-0.7h2.8
			L64.8,32.3z M63.5,29.1l-0.1,0.7c-0.2,1.1-0.5,1.9-1,2.6h1.5l0.7-3.2h-1.1V29.1z"/>
		<path class="st0" d="M69.4,33.1h-0.9l0.8-4h-1.1l-0.3,1.4c-0.4,2.1-1,2.6-2,2.6h-0.4l0.1-0.8h0.1c0.5,0,0.9-0.3,1.2-1.8l0.5-2.2
			h2.9L69.4,33.1z"/>
		<path class="st0" d="M73.6,33.1h-0.9l0.4-1.9h-0.7l-1.3,1.9h-1l1.4-2.1c-0.4-0.2-0.5-0.6-0.5-1c0-0.8,0.6-1.6,1.8-1.6h1.8
			L73.6,33.1z M72.7,29.1c-0.6,0-0.8,0.5-0.8,0.8s0.2,0.5,0.5,0.5h0.8l0.3-1.3H72.7z"/>
		<path class="st0" d="M80.3,33.1h-0.9l0.6-2.9L78.8,32h-0.6l-0.5-1.8l-0.6,2.9h-0.9l1-4.8H78l0.7,2.6l1.7-2.6h0.9L80.3,33.1z"/>
		<path class="st0" d="M85.1,30.7c-0.2,0.9-0.3,1.5-0.7,1.9C84,33,83.5,33.2,83,33.2c-0.9,0-1.5-0.6-1.5-1.4c0-0.2,0-0.5,0.1-1.1
			c0.2-0.9,0.3-1.5,0.7-1.9c0.4-0.4,0.9-0.6,1.4-0.6c0.9,0,1.5,0.6,1.5,1.4C85.3,29.9,85.2,30.2,85.1,30.7z M83.7,29.1
			c-0.3,0-0.5,0.1-0.6,0.3c-0.2,0.2-0.3,0.5-0.5,1.4c-0.1,0.4-0.1,0.8-0.1,1c0,0.4,0.3,0.7,0.6,0.7c0.3,0,0.5-0.1,0.6-0.3
			c0.2-0.2,0.3-0.5,0.5-1.4c0.1-0.4,0.1-0.8,0.1-1C84.4,29.3,84.1,29.1,83.7,29.1z"/>
		<path class="st0" d="M89.1,32.3h0.5l-0.4,1.8h-0.9l0.2-1H86l-0.2,1h-0.9l0.4-1.8h0.4c0.5-0.8,0.9-1.8,1.2-3.3l0.1-0.7h2.8
			L89.1,32.3z M87.7,29.1l-0.1,0.7c-0.2,1.1-0.5,1.9-1,2.6h1.5l0.7-3.2h-1.1V29.1z"/>
		<path class="st0" d="M94,29.1h-2.1l-0.2,1.2h1.8l-0.2,0.8h-1.8l-0.3,1.3h2.2l-0.2,0.8h-3.1l1-4.8h3L94,29.1z"/>
		<path class="st0" d="M97.6,33.1h-0.9l0.8-4h-1.1l-0.3,1.4c-0.4,2.1-1,2.6-2,2.6h-0.4l0.1-0.8H94c0.5,0,0.9-0.3,1.2-1.8l0.5-2.2
			h2.9L97.6,33.1z"/>
		<path class="st0" d="M102.5,29.1h-2.1l-0.2,1.2h1.8l-0.2,0.8H100l-0.3,1.3h2.2l-0.2,0.8h-3.1l1-4.8h3L102.5,29.1z"/>
		<path class="st0" d="M106,33.1h-0.9l0.6-3l-2.5,3h-0.8l1-4.8h0.9l-0.6,3l2.4-3h0.8L106,33.1z M105.3,28.1c-0.7,0-0.9-0.3-0.9-0.7
			c0-0.1,0-0.1,0-0.2h0.6c0,0.1,0,0.1,0,0.1c0,0.2,0.1,0.3,0.4,0.3c0.2,0,0.4-0.1,0.5-0.4h0.6C106.3,27.9,105.9,28.1,105.3,28.1z"/>
	</g>
</g>
</svg>
