<?xml version="1.0" encoding="utf-8"?>
<!-- Generator: Adobe Illustrator 21.0.0, SVG Export Plug-In . SVG Version: 6.00 Build 0)  -->
<svg version="1.1" id="Слой_1" xmlns="http://www.w3.org/2000/svg" xmlns:xlink="http://www.w3.org/1999/xlink" x="0px" y="0px"
	 viewBox="0 0 113.5 38.6" style="enable-background:new 0 0 113.5 38.6;" xml:space="preserve">
<style type="text/css">
	.st0{fill:#FFFFFF;}
</style>
<title>logo_getmodel</title>
<g>
	<g>
		<g>
			<path class="st0" d="M5.9,15.3c2,0,3.2,0.7,4.1,2.1L8,18.9c-0.5-0.8-1.3-1.2-2.3-1.2c-0.8,0-1.5,0.3-2.1,0.9
				c-0.6,0.6-0.9,1.3-0.9,2.1c0,0.7,0.2,1.2,0.7,1.7s1,0.6,1.8,0.6c0.7,0,1.3-0.2,1.9-0.6l0.2-0.9H4.7l0.4-2.2H10l-0.9,4.5
				c-1.1,1-2.5,1.6-4.1,1.6c-1.5,0-2.6-0.4-3.6-1.3S0,22.1,0,20.8C-0.1,18,2.7,15.2,5.9,15.3z"/>
		</g>
		<g>
			<path class="st0" d="M9.8,25.2l2-9.8H19l-0.5,2.4H14l-0.3,1.3h4.2l-0.4,2.2h-4.2l-0.3,1.5h4.6l-0.5,2.4H9.8z"/>
		</g>
		<g>
			<path class="st0" d="M20.3,25.2l1.5-7.3h-2.6l0.5-2.4h7.9L27,17.8h-2.6L23,25.2H20.3z"/>
		</g>
		<g>
			<path class="st0" d="M26.3,25.2l2-9.8h2.2l2.1,4.5l4.1-4.5h2.3l-2,9.8h-2.5l1.1-5.2l-3.7,4l-2-4.2l-1.1,5.4H26.3z"/>
		</g>
		<g>
			<path class="st0" d="M39.7,18.1c0.5-0.9,1.2-1.5,2.1-2.1c0.9-0.5,1.9-0.8,3-0.8c1.5,0,2.7,0.4,3.6,1.3c1,0.9,1.4,1.9,1.4,3.3
				c0,1.5-0.6,2.7-1.7,3.9c-1.1,1.1-2.5,1.7-4.2,1.7c-1.5,0-2.7-0.4-3.7-1.3c-1-0.9-1.4-1.9-1.4-3.3C38.9,19.9,39.2,19,39.7,18.1z
				 M42.3,22.3c0.5,0.4,1.1,0.7,1.8,0.7c0.8,0,1.5-0.3,2.1-0.9c0.6-0.6,0.9-1.3,0.9-2c0-0.7-0.2-1.3-0.7-1.7
				c-0.5-0.5-1.1-0.7-1.8-0.7c-0.8,0-1.5,0.3-2.1,0.9c-0.6,0.6-0.9,1.3-0.9,2.1C41.6,21.3,41.9,21.9,42.3,22.3z"/>
		</g>
		<g>
			<path class="st0" d="M49.9,25.2l2-9.8h3.8c1.3,0,2.4,0.4,3.3,1.2c0.9,0.8,1.3,1.9,1.3,3.1c0,2.7-2.2,5.4-5.4,5.4H49.9z M53,22.8
				h1.8c0.7,0,1.4-0.3,1.9-0.8s0.8-1.2,0.8-1.9c0-1.2-0.9-2.2-2.2-2.2H54L53,22.8z"/>
		</g>
		<g>
			<path class="st0" d="M60.1,25.1l2-9.8h7.2l-0.5,2.4h-4.5L64,19.1h4.2l-0.4,2.2h-4.2l-0.3,1.5h4.6l-0.5,2.4H60.1z"/>
		</g>
		<g>
			<path class="st0" d="M68.7,25.2l2-9.8h2.7l-1.5,7.3h4.4l-0.5,2.4H68.7z"/>
		</g>
		<g>
			<path class="st0" d="M76.9,24.1c0-0.4,0.2-0.8,0.4-1c0.3-0.3,0.6-0.5,1-0.5c0.7,0,1.3,0.5,1.3,1.2c0,0.4-0.1,0.7-0.4,1
				c-0.3,0.3-0.6,0.4-1.1,0.4C77.5,25.3,76.9,24.8,76.9,24.1z"/>
		</g>
		<g>
			<path class="st0" d="M81,18.1c0.5-0.9,1.2-1.5,2.1-2.1c0.9-0.5,1.9-0.8,3-0.8c1.9,0,3.2,0.7,4.2,2.1l-2.2,1.5
				c-0.5-0.8-1.3-1.2-2.2-1.2c-0.8,0-1.5,0.3-2.1,0.9c-0.6,0.6-0.9,1.3-0.9,2.1c0,0.7,0.2,1.3,0.7,1.7c0.5,0.4,1.1,0.7,1.8,0.7
				c0.8,0,1.5-0.4,2.2-1l1.7,1.7c-1.1,1.1-2.4,1.7-4,1.7c-1.5,0-2.7-0.4-3.7-1.3c-1-0.9-1.4-1.9-1.4-3.3C80.3,19.9,80.5,19,81,18.1z
				"/>
		</g>
		<g>
			<path class="st0" d="M90.8,18.1c0.5-0.9,1.2-1.5,2.1-2.1c0.9-0.5,1.9-0.8,3-0.8c1.5,0,2.7,0.4,3.6,1.3c1,0.9,1.4,1.9,1.4,3.3
				c0,1.5-0.6,2.7-1.7,3.9c-1.1,1.1-2.5,1.7-4.2,1.7c-1.5,0-2.7-0.4-3.7-1.3c-1-0.9-1.4-1.9-1.4-3.3C90,19.9,90.2,19,90.8,18.1z
				 M93.4,22.3c0.5,0.4,1.1,0.7,1.8,0.7c0.8,0,1.5-0.3,2.1-0.9c0.6-0.6,0.9-1.3,0.9-2c0-0.7-0.2-1.3-0.7-1.7
				c-0.5-0.5-1.1-0.7-1.8-0.7c-0.8,0-1.5,0.3-2.1,0.9c-0.6,0.6-0.9,1.3-0.9,2.1C92.7,21.3,93,21.9,93.4,22.3z"/>
		</g>
		<g>
			<path class="st0" d="M100.8,25.2l2-9.8h2.2l2.1,4.5l4.1-4.5h2.3l-2,9.8H109l1.1-5.2l-3.7,4l-2-4.2l-1.1,5.4H100.8z"/>
		</g>
	</g>
	<g>
		<path class="st0" d="M21.7,31c0.3,0.2,0.5,0.4,0.5,0.8c0,1-0.7,1.6-1.6,1.6h-2l1-4.8h1.7c0.9,0,1.3,0.5,1.3,1.1
			C22.5,30.2,22.4,30.7,21.7,31z M20.8,31.4h-0.9l-0.3,1.3h0.9c0.5,0,0.8-0.3,0.8-0.8C21.3,31.6,21.1,31.4,20.8,31.4z M21.1,29.4
			h-0.9L20,30.6h0.9c0.5,0,0.7-0.4,0.7-0.7C21.6,29.7,21.5,29.4,21.1,29.4z"/>
		<path class="st0" d="M26.7,29.4h-2.1l-0.2,1.2h1.8L26,31.4h-1.8l-0.3,1.3h2.2l-0.2,0.8h-3.1l1-4.8h3L26.7,29.4z"/>
		<path class="st0" d="M30,29.7c-0.2-0.3-0.5-0.4-0.9-0.4c-0.6,0-0.9,0.4-0.9,0.7c0,0.3,0.2,0.4,0.5,0.5l0.4,0.1
			c0.8,0.2,1.1,0.6,1.1,1.3c0,1.1-0.9,1.6-1.9,1.6c-0.8,0-1.2-0.2-1.6-0.7l0.7-0.6c0.3,0.3,0.6,0.4,1.1,0.4c0.5,0,1-0.3,1-0.7
			c0-0.3-0.2-0.5-0.5-0.5l-0.4-0.1c-0.8-0.2-1.1-0.7-1.1-1.1c0-0.9,0.7-1.6,1.9-1.6c0.6,0,1.1,0.2,1.4,0.6L30,29.7z"/>
		<path class="st0" d="M34.5,29.4h-1.2l-0.8,4h-0.9l0.8-4h-1.2l0.2-0.8h3.3L34.5,29.4z"/>
		<path class="st0" d="M39.8,33.5h-0.8l-0.3-3l-1.5,3h-0.7l-0.3-4.8h0.9l0.1,3.1l1.5-3.1h0.7l0.2,3.1l1.3-3.1H42L39.8,33.5z"/>
		<path class="st0" d="M45.3,31.1c-0.2,0.9-0.3,1.5-0.7,1.9c-0.4,0.4-0.9,0.6-1.4,0.6c-0.9,0-1.5-0.6-1.5-1.4c0-0.2,0-0.5,0.1-1.1
			c0.2-0.9,0.3-1.5,0.7-1.9c0.4-0.4,0.9-0.6,1.4-0.6c0.9,0,1.5,0.6,1.5,1.4C45.5,30.2,45.5,30.5,45.3,31.1z M44,29.4
			c-0.3,0-0.5,0.1-0.6,0.3c-0.2,0.2-0.3,0.5-0.5,1.4c-0.1,0.4-0.1,0.8-0.1,1c0,0.4,0.3,0.7,0.6,0.7c0.3,0,0.5-0.1,0.6-0.3
			c0.2-0.2,0.3-0.5,0.5-1.4c0.1-0.4,0.1-0.8,0.1-1C44.6,29.6,44.3,29.4,44,29.4z"/>
		<path class="st0" d="M48.7,31.4l0.7,2.1h-1l-0.6-2h-0.7l-0.4,2h-0.9l1-4.8h1.7c1,0,1.3,0.6,1.3,1.3C49.8,30.5,49.4,31.2,48.7,31.4
			z M48.4,29.4h-0.8l-0.3,1.3h0.8c0.6,0,0.8-0.5,0.8-0.8C48.9,29.6,48.7,29.4,48.4,29.4z"/>
		<path class="st0" d="M52.8,30.7l1.1,2.8h-1l-0.8-2.2L51.3,32L51,33.5h-0.9l1-4.8H52l-0.4,2.1l2-2.1h1.1L52.8,30.7z"/>
		<path class="st0" d="M59.7,29.4h-2.1l-0.3,1.3h1.8L59,31.5h-1.8l-0.4,2h-0.9l1-4.8h3L59.7,29.4z"/>
		<path class="st0" d="M63.4,31.1c-0.2,0.9-0.3,1.5-0.7,1.9c-0.4,0.4-0.9,0.6-1.4,0.6c-0.9,0-1.5-0.6-1.5-1.4c0-0.2,0-0.5,0.1-1.1
			c0.2-0.9,0.3-1.5,0.7-1.9c0.4-0.4,0.9-0.6,1.4-0.6c0.9,0,1.5,0.6,1.5,1.4C63.5,30.2,63.5,30.5,63.4,31.1z M62,29.4
			c-0.3,0-0.5,0.1-0.6,0.3c-0.2,0.2-0.3,0.5-0.5,1.4c-0.1,0.4-0.1,0.8-0.1,1c0,0.4,0.3,0.7,0.6,0.7c0.3,0,0.5-0.1,0.6-0.3
			c0.2-0.2,0.3-0.5,0.5-1.4c0.1-0.4,0.1-0.8,0.1-1C62.6,29.6,62.3,29.4,62,29.4z"/>
		<path class="st0" d="M66.7,31.4l0.7,2.1h-1l-0.6-2h-0.7l-0.4,2h-0.9l1-4.8h1.7c1,0,1.3,0.6,1.3,1.3C67.8,30.5,67.5,31.2,66.7,31.4
			z M66.4,29.4h-0.8l-0.3,1.3h0.8c0.6,0,0.8-0.5,0.8-0.8C66.9,29.6,66.7,29.4,66.4,29.4z"/>
		<path class="st0" d="M73.7,33.5h-0.9l0.6-2.9l-1.2,1.8h-0.6l-0.5-1.8l-0.6,2.9h-0.9l1-4.8h0.8l0.7,2.6l1.7-2.6h0.9L73.7,33.5z"/>
		<path class="st0" d="M78.6,31.1c-0.2,0.9-0.3,1.5-0.7,1.9c-0.4,0.4-0.9,0.6-1.4,0.6c-0.9,0-1.5-0.6-1.5-1.4c0-0.2,0-0.5,0.1-1.1
			c0.2-0.9,0.3-1.5,0.7-1.9c0.4-0.4,0.9-0.6,1.4-0.6c0.9,0,1.5,0.6,1.5,1.4C78.7,30.2,78.7,30.5,78.6,31.1z M77.2,29.4
			c-0.3,0-0.5,0.1-0.6,0.3c-0.2,0.2-0.3,0.5-0.5,1.4c-0.1,0.4-0.1,0.8-0.1,1c0,0.4,0.3,0.7,0.6,0.7c0.3,0,0.5-0.1,0.6-0.3
			c0.2-0.2,0.3-0.5,0.5-1.4c0.1-0.4,0.1-0.8,0.1-1C77.8,29.6,77.5,29.4,77.2,29.4z"/>
		<path class="st0" d="M82.9,31c-0.2,1.2-0.4,1.6-0.8,2c-0.3,0.3-0.8,0.5-1.3,0.5h-1.7l1-4.8h1.6c0.8,0,1.4,0.4,1.4,1.3
			C83.1,30.2,83,30.4,82.9,31z M81.5,29.4h-0.7l-0.7,3.3h0.7c0.3,0,0.5-0.1,0.7-0.3c0.2-0.2,0.3-0.5,0.5-1.4c0.1-0.6,0.1-0.8,0.1-1
			C82.2,29.6,81.9,29.4,81.5,29.4z"/>
		<path class="st0" d="M87.2,29.4h-2.1l-0.2,1.2h1.8l-0.2,0.8h-1.8l-0.3,1.3h2.2l-0.2,0.8h-3.1l1-4.8h3L87.2,29.4z"/>
		<path class="st0" d="M90.3,33.5h-3l1-4.8h0.9l-0.8,4h2.1L90.3,33.5z"/>
		<path class="st0" d="M94.3,29.7c-0.2-0.3-0.5-0.4-0.9-0.4c-0.6,0-0.9,0.4-0.9,0.7c0,0.3,0.2,0.4,0.5,0.5l0.4,0.1
			c0.8,0.2,1.1,0.6,1.1,1.3c0,1.1-0.9,1.6-1.9,1.6c-0.8,0-1.2-0.2-1.6-0.7l0.7-0.6c0.3,0.3,0.6,0.4,1.1,0.4c0.5,0,1-0.3,1-0.7
			c0-0.3-0.2-0.5-0.5-0.5l-0.4-0.1c-0.8-0.2-1.1-0.7-1.1-1.1c0-0.9,0.7-1.6,1.9-1.6c0.6,0,1.1,0.2,1.4,0.6L94.3,29.7z"/>
	</g>
</g>
</svg>
